<svg xmlns="http://www.w3.org/2000/svg" viewBox="0 0 240 56"><defs><style>.cls-1{fill:#f6c551;}.cls-2{fill:#fff;}.cls-3{opacity:0.2;}.cls-4{fill:none;}</style></defs><g id="Layer_2" data-name="Layer 2"><g id="Layer_1-2" data-name="Layer 1"><rect class="cls-1" width="240" height="56"></rect><path class="cls-2" d="M98,28V16.74h-3.1V26.86c0,3.1-1.43,4.94-3.86,4.94s-3.93-2-3.93-4.94V25h-3.1v2.2a7.2,7.2,0,0,0,7,7.52,6.75,6.75,0,0,0,6-3.67h4.27V28Zm14.38-5.75A5.3,5.3,0,0,0,108.66,21a4.67,4.67,0,0,0-5,5A5.81,5.81,0,0,0,104,28h-3.32v3h8.11a4.79,4.79,0,0,0,5.07-5A4.74,4.74,0,0,0,112.42,22.28Zm-2.13,5.47a1.81,1.81,0,0,1-1.52.75,1.87,1.87,0,0,1-1.6-.79,3,3,0,0,1-.48-1.78,3.14,3.14,0,0,1,.44-1.68,1.62,1.62,0,0,1,1.46-.83h.22c1.31,0,2,.87,2,2.62A2.88,2.88,0,0,1,110.29,27.75Zm-3.1-11v2.54h2.75V16.72ZM121.88,28V21h-3.13v8.26c0,1.94-1,2.92-3,2.92v2.5c3.52,0,5.52-1.21,6-3.65h3.43V28ZM124,16.74v2.54h2.75V16.74ZM128,21v4.89c0,1.44-.53,2.17-1.58,2.17h-2v3h2.64a3.66,3.66,0,0,0,3-1.36,4.42,4.42,0,0,0,1-2.92V21Zm.13-4.23v2.54h2.78V16.74Zm28,11.29a2.5,2.5,0,0,1-2.63-1.35,5.27,5.27,0,0,0-5-3.05c-.91,0-1.35,0-1.35,0v2.7a2.06,2.06,0,0,1,2.59,1.88c0,2.06-2.27,3.57-4.67,3.57-3.14,0-4.89-2-4.89-5V24.47h-3.1v2.66A7.63,7.63,0,0,0,145,34.67c3.61,0,6.75-2,7.43-5a5.34,5.34,0,0,0,3.84,1.3h.31V28Zm-14.24,8.71v2.54h2.77V36.74Zm4.18,0v2.54h2.75V36.74Zm9.76-20v2.54h2.74V16.74Zm4,4.23v4.89c0,1.44-.52,2.17-1.57,2.17h-2v3h2.64a3.66,3.66,0,0,0,3-1.36,4.47,4.47,0,0,0,1-2.92V21Zm.14-4.23v2.54h2.76V16.74Zm5.22,0V31h3.1V16.72ZM173.48,21v8.26c0,1.94-1,2.92-3.06,2.92v2.5c2.13,0,3.68-.42,4.63-1.28S176.6,31,176.6,29V21Zm.15-4.23v2.54h2.74V16.74Zm15,11.29V26A4.84,4.84,0,0,0,183.7,21a4.78,4.78,0,0,0-5,5,4.86,4.86,0,0,0,5,5,8.2,8.2,0,0,0,1.91-.13c-.24.86-1,1.31-2.15,1.31h-.26v2.47h.33c3,0,4.69-1.21,5.05-3.65h2.92V28Zm-3.09,0h-1.8a2,2,0,0,1-1.9-2.21c0-1.17.62-2.08,1.79-2.08a1.92,1.92,0,0,1,1.91,2.14Zm21,0c-.38-3.28-1.78-5.47-4.15-6.6a8.11,8.11,0,0,0-3.45-.7,7.25,7.25,0,0,0-5.47,2.35L195,25.17a5.57,5.57,0,0,1,3.7-1.59A4.42,4.42,0,0,1,202.11,25a4.68,4.68,0,0,1,1.26,3H190.8v3h18.51V28Zm-8.73,4.08v2.56h2.75V32.11Zm18.52-11.38a7.26,7.26,0,0,0-5.49,2.35c.72,1,1.23,1.67,1.55,2.09a5.62,5.62,0,0,1,3.72-1.59A4.59,4.59,0,0,1,220.72,28H208.18v3H224V30C224,24.2,221.38,20.75,216.31,20.73Z"></path><path class="cls-2" d="M63.26,45.91A23,23,0,0,1,29.12,16.18H16l1.16-3.77a10.49,10.49,0,0,1,10-7.4H48.84a23.14,23.14,0,0,1,3.75.31A21.06,21.06,0,1,0,63.26,45.91Z"></path><path class="cls-2" d="M50.21,42.29a3.17,3.17,0,0,0,.17.37c-.19-.11-.23-.13-1-1.28C48.57,40,49,38,47.49,36.9c-1.31-1-3-2.31-2.8-3.35.35-2.31.09-2.72-.19-3.21-.15.05-.15.05-.4.37a19.86,19.86,0,0,1-2.38-2.1c-.51-.69-1.55-.59-2-1.37a25.27,25.27,0,0,1-.91-3.7.23.23,0,0,0-.05.07,7,7,0,0,0-.2-1.5,19.27,19.27,0,0,0,14,22.56A7.79,7.79,0,0,1,50.21,42.29ZM68.63,10.34l0,0a11.61,11.61,0,0,0-1.32-.83c.53.35,1,.71,1.56,1Zm4.63,17.28a2.12,2.12,0,0,0-.34-.83l0-.08c-.06-.21,0-.45-.09-.66a.78.78,0,0,0-.2-.36,2.77,2.77,0,0,0-.43-1.12s-.33-.25-.11.34c.63,1.75.59,1.95.5,2.4a1.06,1.06,0,0,1,.3,1,1.71,1.71,0,0,1,.46.82.61.61,0,0,0,0,.13A8.06,8.06,0,0,0,73.26,27.62Zm1.36-10.28a20.33,20.33,0,0,1,1.54,4.23A18.29,18.29,0,0,0,74.62,17.34Zm1.79,9.16a.57.57,0,0,1-.13.14.75.75,0,0,1,0-.39,3.86,3.86,0,0,1-.26-.86c-.77-.2-.77-.2-.94-.63a1.22,1.22,0,0,1-.05.17.68.68,0,0,1-.17.09c-.3-.32-.32-.78-.6-1.11l-.15.13a8.28,8.28,0,0,0,.49,1.68c.42-.09.45-.36.48-.68,0,.18,0,.4.06.57,1.29.8.06,2-1.82,3.75a2.57,2.57,0,0,1,.06.4,1.51,1.51,0,0,0,1-.47A3.33,3.33,0,0,1,74,30.9c-.52,1.05-1.55,1.72-2.12,2.74-.48.84-.31,1.91-.93,2.71-.15.17-2.72,3-3.62,3.71-.57.46-.57.46-2,.79l-.08-.15a12.55,12.55,0,0,0,.53-2.09c.15-.48-.06-1,.08-1.44.2-.67.81-1.15.91-1.86a2.58,2.58,0,0,0-.14-1.72c-.33-.74.07-1.46.1-2.18-.59,0-1-.47-1.63-.47,0,0-1.76.36-2.17.47a.9.9,0,0,1-.22.06A1.5,1.5,0,0,1,62,31.1s-2.07-1.68-1.81-2.64c.34-1.28.34-1.28,0-2l2.57-3.92h0l0-.05a5.19,5.19,0,0,1,.43-.49l2-.36c1.73-.3,1.73-.3,1.73,1a14.85,14.85,0,0,0,2.07,1l.17-.11c0-.48,0-.48.06-.62.75-.19,1.31.48,2,.55a1.16,1.16,0,0,0,.37,0c.28-.06.72-1.51.15-1.79-.32.21-.39.26-.71-.15a.92.92,0,0,1-.19.33c-.78-.27-.52-1.4-1.34-1.64a.65.65,0,0,1,0,.34l-.16,0a2.18,2.18,0,0,0,.61.72.9.9,0,0,1-.39,0,.58.58,0,0,1,0,.32,3.91,3.91,0,0,1-1.09-1.84,9.42,9.42,0,0,1-1.28-1.15.47.47,0,0,0-.28.16,3,3,0,0,0,.8,1l.15-.05c.11.28.47.38.52.69a.66.66,0,0,0-.15-.09l-.13.1c.39.43-.15.82-.1,1.23l-.7-.5c1-.16,1.19-.3-1-2.16a8.75,8.75,0,0,1-1.33.36c0,.16,0,.32.06.49-.37.45-.37,1.09-.77,1.52s-.72.21-1,.4-.58-.32-.93-.33l0-.45-.23-.12a.69.69,0,0,1,.16-.36,4.61,4.61,0,0,1-.08-1.17c.53-.31,1.11,0,1.65-.15.44-.83-.75-1.11-1.07-1.71.2-.27.62-.1.81-.41,1-.18.89-1.36,1.62-1.79C64.9,14.12,64.9,14.12,65,14c.13.34.2.71.33,1s1.16.58,1.35.09a.77.77,0,0,1,.16-.07,1.3,1.3,0,0,0,.34.15.71.71,0,0,1,.07-.32A3.09,3.09,0,0,1,67,14l.17,0a1.07,1.07,0,0,1,.28.28l.06-.13c-.13-.36-.59-.47-.64-.89.23-.08.5,0,.7-.22a.91.91,0,0,0-.34-.17c-.59.42-.78.12-1.52-1a.87.87,0,0,0-.49-1.16l-.14.08a2.06,2.06,0,0,0,.38.67c-.21.83.62,1.29.71,2a.61.61,0,0,1-.15.12c.12.28.27.65.37.93-.19.06-.19.06-.33.37-.08,0-.29-.29-1.14-1.47-.16.1-.17.34-.36.41-.56.26-.93-1.18-.95-1.24l-.22-3.38c0-.89,3,.8,3.33,1.16a1.1,1.1,0,0,0,0,.18l-.94-.3c1.27.91,1.56,1.12,1.66,1.18-.12-.16-.29-.26-.37-.41.3.19.3.19.51.21-.5-.5-.5-.5-.5-.7h.18c-.35-.34-.79-.57-1.12-.93.36.14.57.5.94.59-.39-.4-.38-.48-.36-.66a1.35,1.35,0,0,0,.33.19.71.71,0,0,1-.21-.3c.1.08.26.16.37.23a8,8,0,0,0-1.27-.8c1.11.51,1.11.51,1.36.61l-.12-.07h0l-.17-.1-.64-.35a17.83,17.83,0,0,0-2.49-1.08c.61.3,1.2.61,1.82.9-.18,0-.28,0-1.18-.49-.42-.2-.8-.45-1.22-.61a1,1,0,0,0-.18-.06,19.36,19.36,0,0,0-5.63-.83h-.13l0,0c.09.1.23.13.31.24a1.78,1.78,0,0,1,.17.4l-.06.07c0,.08.05.15,0,.24s-.15,0,0,.29c0,0,.34.79.09,1.11a1.46,1.46,0,0,1-1.24.58c-.14,0-.18,0-.2,0s0,.22-.11.32-.11.11-.38.37l-.1.08a1.25,1.25,0,0,1-.45.27c-.57.26-.67.38-.66.64s0,.19,0,.24-.11.09-.2.16-.12.08-.19.39c-.14.49-.2.76-.43.86s-.47-.09-.42-.34c0,0,0-.06,0-.07s-.3.07-.45,0l0,0a5,5,0,0,1,0-2.36c.26-.61.44-.66.55-.69a.78.78,0,0,0,.43-.5c-.31-.32-.31-.32-.29-.38s.24.18.39.14c.11-.19,0-.4.1-.59-.17,0-.2.17-.32.25s0-.05,1.14-1.52a.08.08,0,0,0,0,0,18.89,18.89,0,0,0-7.37,2.61c0,.07-.09.16-.14.23s.09.11.12.15c.47-.15.79-.58,1.22-.79,0,.09,0,.09-.54.59.76-.38,1.27-1.12,2.07-1.43-.52.42-1,.91-1.5,1.33a2,2,0,0,0,.4-.24c-.13.2-.13.2-.65.67.64-.1.93-.74,1.48-1v.23a15.25,15.25,0,0,1-2.4,1.58s.07.12.11.17c-.9.84-2.28,1.15-2.76,2.44l.18,0c0,.17,0,.17-.32.68a1.67,1.67,0,0,1,.39,0c.33.72.33.72.61.72-.07.24-.19.57-.27.81a1,1,0,0,0,.17.61c.42-.07,1.25-1.67,1.26-1.68a1.94,1.94,0,0,0,.21-1.18c.56-.44.74-1.32,1.61-1.39.14.39.14.39.33.49-.09.25-.21.59-.29.84a2.7,2.7,0,0,0,.31.2c.29-.14.39-.46.64-.64.39.64-.21,1.72.79,2.07-.21.65.07,1.38-.32,2,.14.07.14.07.56,0l.1.24c-.16.39-.16.39-1.42.48.22-.41.53-1,.77-1.35l-1.95.26A5.76,5.76,0,0,0,46.92,18c.87-.82,1.07-.83,1.4-.84l.1.17a.93.93,0,0,1-.38.23c.06.17.06.17,0,.64.19.09.35.23.54.32a5.32,5.32,0,0,0,.45-.38l.07.22c-.25.37-.52.53-1.38.83,0-.31,0-.31.18-.67a2.33,2.33,0,0,1-.39.19c0,.07,0,.14,0,.19a5.09,5.09,0,0,0-1.88,1.69c-1.9,3.4-1.9,3.4-1.73,4.79l-.28-.07c-.22-.47-.05-1-.21-1.49-.71,0-.71,0-1-.15a.61.61,0,0,0-.17.35c-.13,0-.13,0-.84-.08-1.43,2.52-.1,3.73.33,3.53s.46-1.16.92-.81c-.06.52-.15,1-.2,1.55.3.22.66.08,1,.21.31,1.69.31,1.69.4,1.81.84-.13.84-.13,1,.07.17-.18.17-.18.24-.67.44,0,.72-.29,1.08-.43.91.57,2,.69,2.87,1.38l.55.46c.41.31,1,.14,1.4.46s.16.82.58,1l3.63,1.38a.86.86,0,0,1,.2.72c0,.23-1.18,3.12-1.2,3.13-.34.58-1.65.41-1.41,1.29.18.69-.5,1.63-.51,1.65-.15.18-.23.23-.52.12,0,.06,0,.15,0,.21l.18.05c.17.35.17.36,0,.64a2.45,2.45,0,0,1-.38,0,1.4,1.4,0,0,0-.09.17l.07.18a1.3,1.3,0,0,1-.15.1v.19c.25.08.25.08.37.57l-.18.06,2.07,1.8-.11,0a20.2,20.2,0,0,0,3.92.39A19.25,19.25,0,0,0,76.24,30.15l-.07.18A30.3,30.3,0,0,0,76.41,26.5ZM62.26,13.56a.37.37,0,0,1,.05.41c0,.08,0,.1,0,.12s.31-.25.41-.07,0,.14,0,.35-.08.42.19.33c.25.44.25.44.35.5a1.07,1.07,0,0,1,.43.64H64v0a3,3,0,0,0,0,.52c0,.06.08.11.11.15s0,.11-.14.12a2.64,2.64,0,0,0-1.4.33c.28-.47.32-.49.36-.52s-.25-.17-.29-.33.13,0,.18-.06,0-.08,0-.11a.38.38,0,0,1,0-.25c0-.11.18,0,.21-.14a2,2,0,0,0-.13-.29s-.09-.18-.38-.13L62.39,15c-.07-.14,0-.32-.1-.46s0-.06-.14-.09S62,14.4,62,14.25C61.92,13.73,62,13.64,62.26,13.56Zm-.82,1.86c.11,0,.22,0,.33-.06s-.13-.2-.12-.33.12-.11.15-.11c.18,0,.44.19.43.34s0,.13-.1.25a.91.91,0,0,1,.06.56l-.06.08c-.08.07-.18.05-.26.13s0,.14-.1.2,0,0-.07,0a.79.79,0,0,1-.2-.18s0-.08,0-.12a1,1,0,0,0,.13-.45s0,0-.05,0-.21.13-.28-.16C61.31,15.47,61.41,15.44,61.44,15.42Zm-1.93-4.18s-.07,0-.1,0-.13.21-.21.29a.69.69,0,0,1-.21.13.5.5,0,0,1-.27,0c-.17,0-.28-.16-.46-.16a.53.53,0,0,1-.21,0h0c0-.08.19-.09.14-.2s-.13-.14-.3-.19c.29,0,.25-.21.2-.24a.36.36,0,0,0-.19,0,.35.35,0,0,1-.18,0s0-.18.13-.19a.28.28,0,0,1,.17,0c-.08-.11-.22-.26,0-.28s.16.13.18.27.07.11.11.14a.07.07,0,0,0,.06,0c.07,0,.11-.09.17-.12l.23-.1s.67-.28.76.34A.78.78,0,0,1,59.51,11.24Z"></path><g class="cls-3"><path class="cls-4" d="M65.39,8.29l-.2-.09.39.21-.18-.07.13.07.17.09a19.75,19.75,0,0,1,1.78,1c.37.28.76.52,1.12.83l0,0a20.11,20.11,0,0,1,2.13,1.76A19.18,19.18,0,0,0,65.39,8.29Zm6,4.47c.33.34.65.7.95,1.07C72.06,13.45,71.72,13.11,71.4,12.76Zm1.86,14.86a2.12,2.12,0,0,0-.34-.83l0-.08c-.06-.21,0-.45-.09-.66a.78.78,0,0,0-.2-.36,2.77,2.77,0,0,0-.43-1.12s-.33-.25-.11.34c.63,1.75.59,1.95.5,2.4a1.06,1.06,0,0,1,.3,1,1.71,1.71,0,0,1,.46.82.61.61,0,0,0,0,.13A8.06,8.06,0,0,0,73.26,27.62Zm3,2.45a9.79,9.79,0,0,0,.29-1.64C76.47,29,76.38,29.53,76.26,30.07ZM76.7,26c0,.69,0,1.38-.11,2.06,0-.1,0-.23,0-.34,0-.51.07-1,.07-1.52A1.34,1.34,0,0,0,76.7,26Zm-3.44,1.61a2.12,2.12,0,0,0-.34-.83l0-.08c-.06-.21,0-.45-.09-.66a.78.78,0,0,0-.2-.36,2.77,2.77,0,0,0-.43-1.12s-.33-.25-.11.34c.63,1.75.59,1.95.5,2.4a1.06,1.06,0,0,1,.3,1,1.71,1.71,0,0,1,.46.82.61.61,0,0,0,0,.13A8.06,8.06,0,0,0,73.26,27.62ZM65.7,8.5l-.17-.09c-.36-.16-.71-.34-1.07-.49.45.24,1.2.64,1.84,1l.64.35A11.55,11.55,0,0,0,65.7,8.5Zm5.62,15s0,0,0,0a.28.28,0,0,1,.09.1.72.72,0,0,1,.16.25,3.29,3.29,0,0,1,.23.46.66.66,0,0,1,.07.15l.06.16m0,.05s0,0,0-.05l-.06-.16a.66.66,0,0,0-.07-.15,3.29,3.29,0,0,0-.23-.46.72.72,0,0,0-.16-.25.28.28,0,0,0-.09-.1m1.93,4.11a2.12,2.12,0,0,0-.34-.83l0-.08c-.06-.21,0-.45-.09-.66a.78.78,0,0,0-.2-.36,2.77,2.77,0,0,0-.43-1.12s-.33-.25-.11.34c.63,1.75.59,1.95.5,2.4a1.06,1.06,0,0,1,.3,1,1.71,1.71,0,0,1,.46.82.61.61,0,0,0,0,.13A8.06,8.06,0,0,0,73.26,27.62Z"></path><path class="cls-4" d="M76.2,30.64l-.08.29a9,9,0,0,1,.2-.93c0,.26-.1.55-.12.64"></path><path class="cls-2" d="M72.06,36.23c-.2.36-1.73,2.66-2.14,2.58,0,0,0-.15.35-.81.12-.2.32-.33.44-.53s.21-.5.36-.73l0-.06a.44.44,0,0,1,.27-.14.91.91,0,0,0,.48-.33,4.49,4.49,0,0,1,.37-.52h0s0,.24-.2.55Z"></path><path class="cls-2" d="M60.82,6.78l.09,0a5.6,5.6,0,0,1-.59-.12Z"></path><path class="cls-2" d="M63.76,7.82l-.52-.18-.18-.06c-1.57-.58-1.67-.62-2-.72l-.17-.06A14.9,14.9,0,0,1,63,7.46C63.24,7.57,63.5,7.69,63.76,7.82Z"></path><path class="cls-2" d="M38.76,23.61a2.31,2.31,0,0,1-.15.85A1.08,1.08,0,0,1,38.76,23.61Z"></path><path class="cls-2" d="M38.61,24.46c.1.56.52,1.08.47,1.65-.32-.44-.29-1-.55-1.47A1,1,0,0,0,38.61,24.46Z"></path><path class="cls-2" d="M53.5,44.89a1.44,1.44,0,0,1-.89-.22Z"></path></g></g></g></svg>